<svg width="1600" height="900" viewBox="0 0 1600 900" fill="none" xmlns="http://www.w3.org/2000/svg">
  <defs>
    <linearGradient id="bg" x1="0" y1="0" x2="1600" y2="900" gradientUnits="userSpaceOnUse">
      <stop offset="0" stop-color="#1b1234"/>
      <stop offset="0.45" stop-color="#3b1767"/>
      <stop offset="1" stop-color="#ff4fb7"/>
    </linearGradient>
    <radialGradient id="glow1" cx="0" cy="0" r="1" gradientUnits="userSpaceOnUse" gradientTransform="translate(320 180) rotate(20) scale(560 300)">
      <stop stop-color="#ff85d8" stop-opacity="0.95"/>
      <stop offset="1" stop-color="#ff85d8" stop-opacity="0"/>
    </radialGradient>
    <radialGradient id="glow2" cx="0" cy="0" r="1" gradientUnits="userSpaceOnUse" gradientTransform="translate(1260 700) rotate(-10) scale(620 300)">
      <stop stop-color="#9a8dff" stop-opacity="0.9"/>
      <stop offset="1" stop-color="#9a8dff" stop-opacity="0"/>
    </radialGradient>
    <linearGradient id="card" x1="450" y1="150" x2="1150" y2="760" gradientUnits="userSpaceOnUse">
      <stop stop-color="#ff74cc"/>
      <stop offset="1" stop-color="#9f66ff"/>
    </linearGradient>
    <linearGradient id="nGrad" x1="0" y1="0" x2="1" y2="1">
      <stop offset="0" stop-color="#ffffff"/>
      <stop offset="1" stop-color="#ffe6f8"/>
    </linearGradient>
    <filter id="soft" x="-20%" y="-20%" width="140%" height="140%">
      <feGaussianBlur stdDeviation="16"/>
    </filter>
  </defs>

  <rect width="1600" height="900" fill="url(#bg)"/>
  <ellipse cx="320" cy="180" rx="560" ry="300" fill="url(#glow1)"/>
  <ellipse cx="1260" cy="700" rx="620" ry="300" fill="url(#glow2)"/>

  <g opacity="0.35" filter="url(#soft)">
    <circle cx="190" cy="740" r="80" fill="#ff85d8"/>
    <circle cx="1420" cy="220" r="120" fill="#8ab9ff"/>
    <circle cx="980" cy="120" r="55" fill="#ffd2ee"/>
  </g>

  <rect x="470" y="170" width="660" height="560" rx="48" fill="url(#card)" fill-opacity="0.18" stroke="#ffffff" stroke-opacity="0.5" stroke-width="2"/>

  <g transform="translate(585 250)">
    <rect x="0" y="0" width="430" height="430" rx="70" fill="#121224" fill-opacity="0.45" stroke="#ffffff" stroke-opacity="0.4"/>
    <path d="M95 333V95h88l155 206V95h92v238h-87L187 127v206H95z" fill="url(#nGrad)"/>
    <path d="M95 333V95h88l155 206V95h92v238h-87L187 127v206H95z" fill="none" stroke="#ffd4f4" stroke-opacity="0.55" stroke-width="4"/>
  </g>

  <text x="800" y="780" text-anchor="middle" fill="#fff" fill-opacity="0.9" font-family="Segoe UI, Inter, Arial" font-size="64" font-weight="800">NocLauncher</text>
</svg>
